<?xml version="1.0" standalone="no"?>
<!DOCTYPE svg PUBLIC "-//W3C//DTD SVG 20010904//EN"
 "http://www.w3.org/TR/2001/REC-SVG-20010904/DTD/svg10.dtd">
<svg version="1.0" xmlns="http://www.w3.org/2000/svg"
 width="1377.000000pt" height="618.000000pt" viewBox="0 0 1377.000000 618.000000"
 preserveAspectRatio="xMidYMid meet">

<g transform="translate(0.000000,618.000000) scale(0.100000,-0.100000)"
fill="#000000" stroke="none">
<path d="M1905 4766 l-50 -11 -3 -89 -3 -88 33 4 c18 3 101 15 185 28 l152 23
148 -128 c81 -71 159 -138 172 -149 l23 -21 27 35 c14 19 61 77 104 128 70 83
77 96 65 112 -7 10 -40 52 -73 94 l-60 75 -335 0 c-217 -1 -353 -5 -385 -13z"/>
<path d="M2805 4721 l46 -59 77 55 c42 30 79 57 81 59 2 2 -53 4 -123 4 l-127
0 46 -59z"/>
<path d="M3385 4766 c-462 -106 -851 -609 -1006 -1302 -90 -405 -97 -862 -19
-1269 85 -445 264 -825 514 -1092 211 -227 503 -346 765 -313 102 13 121 19
1081 365 102 36 255 91 340 121 259 92 271 97 267 100 -2 2 -19 -1 -38 -6 -19
-6 -171 -42 -339 -80 -168 -39 -332 -77 -365 -85 -236 -57 -319 -75 -323 -71
-2 3 19 34 48 69 47 56 163 231 172 258 3 9 163 51 798 210 113 29 209 56 214
60 6 5 -227 9 -536 9 l-546 0 -47 -87 c-246 -458 -574 -662 -890 -553 -172 59
-355 223 -485 435 -273 445 -381 1089 -284 1695 95 593 381 1071 730 1221 76
33 83 34 209 34 123 0 134 -2 200 -31 201 -87 401 -297 525 -552 l35 -72 1150
1 c633 1 1125 5 1095 9 -50 8 -273 34 -500 60 -47 5 -141 16 -210 25 -69 8
-186 21 -260 30 -74 8 -211 24 -305 35 -93 11 -228 27 -300 35 -316 37 -376
44 -477 56 l-107 13 -52 84 c-28 46 -80 122 -115 168 -35 46 -61 84 -57 84 5
0 91 -7 193 -15 464 -36 587 -46 760 -59 101 -9 185 -14 187 -12 1 1 -19 8
-45 14 -387 95 -1342 332 -1487 368 -165 41 -206 48 -310 51 -76 1 -142 -3
-180 -11z"/>
<path d="M1644 4671 c-91 -48 -204 -125 -204 -139 0 -4 13 -15 29 -25 25 -14
30 -25 35 -74 7 -55 54 -305 59 -310 2 -1 43 13 92 32 50 18 127 44 172 58
l82 25 228 -134 228 -134 48 98 c27 53 59 115 72 137 l23 40 -168 143 c-144
121 -174 142 -202 142 -40 0 -221 -32 -305 -54 -31 -8 -59 -13 -61 -11 -4 3
-20 185 -21 238 -1 9 -4 17 -8 17 -5 0 -49 -22 -99 -49z"/>
<path d="M1294 4398 c-78 -86 -256 -342 -243 -351 2 -2 44 -19 92 -38 l89 -34
48 -130 c64 -174 82 -215 91 -215 4 0 42 20 84 45 42 25 111 63 154 85 l78 39
274 -104 c150 -58 273 -104 274 -102 1 1 22 65 46 143 l45 140 -222 127 c-122
70 -229 127 -237 127 -20 0 -183 -59 -275 -99 -39 -17 -74 -31 -79 -31 -15 0
-71 209 -88 331 -8 56 -11 59 -56 87 l-36 22 -39 -42z"/>
<path d="M968 3882 c-39 -91 -71 -178 -104 -291 -19 -63 -34 -115 -34 -116 0
-1 53 -13 117 -26 l117 -24 23 -40 c14 -22 58 -95 100 -163 l75 -123 61 54
c34 29 98 81 142 115 l80 62 153 -30 c83 -17 220 -43 303 -60 84 -16 155 -27
159 -25 4 3 10 31 14 64 4 33 14 93 22 132 8 40 11 76 7 80 -4 4 -96 40 -203
79 -107 39 -224 82 -260 96 -36 13 -68 24 -72 24 -11 0 -171 -92 -243 -140
-38 -26 -76 -50 -83 -54 -16 -10 -81 126 -163 344 -8 20 -28 31 -100 57 l-90
32 -21 -47z"/>
<path d="M3645 3866 c-144 -36 -275 -158 -324 -304 -30 -89 -29 -233 3 -324
41 -115 120 -206 228 -260 69 -35 137 -48 248 -48 72 0 92 4 111 19 24 19 24
23 24 191 0 217 5 210 -156 210 -128 0 -149 -11 -149 -79 0 -54 34 -81 101
-81 l49 0 0 -51 0 -52 -60 6 c-68 6 -126 35 -184 94 -111 111 -115 305 -10
422 70 78 128 104 244 108 126 5 137 8 156 44 18 36 13 70 -16 99 -17 17 -33
20 -117 19 -54 0 -120 -6 -148 -13z"/>
<path d="M7637 3868 c-46 -36 -45 -43 103 -492 135 -407 142 -424 170 -436 37
-15 76 -6 94 23 20 31 279 816 279 846 0 30 -45 71 -77 71 -50 0 -63 -26 -155
-307 -91 -277 -104 -312 -113 -297 -3 5 -47 135 -98 289 -60 183 -99 286 -112
298 -24 20 -67 22 -91 5z"/>
<path d="M9018 3860 l-28 -21 0 -432 c0 -238 4 -437 8 -443 11 -16 48 -34 72
-34 11 0 32 11 45 25 23 22 25 31 25 128 l0 105 113 3 c100 4 118 7 170 33 68
35 140 108 170 174 18 38 22 65 22 142 0 84 -3 101 -27 146 -34 66 -101 132
-164 164 -45 23 -62 25 -214 28 -157 4 -166 3 -192 -18z m369 -176 c85 -68
104 -165 46 -248 -45 -64 -100 -87 -203 -84 l-85 3 -3 183 -2 184 104 -4 c99
-3 106 -5 143 -34z"/>
<path d="M12160 3860 c-19 -19 -20 -33 -20 -348 0 -381 3 -400 76 -482 61 -67
109 -90 200 -97 94 -7 124 9 124 65 0 20 -4 42 -8 48 -14 21 -51 34 -99 34
-58 0 -105 26 -130 72 -15 27 -18 57 -18 173 l0 140 66 5 c80 6 109 26 109 76
0 50 -37 74 -116 74 l-64 0 0 113 c0 98 -3 116 -18 130 -25 23 -78 21 -102 -3z"/>
<path d="M4251 3619 c-77 -24 -157 -96 -192 -173 -15 -33 -19 -66 -19 -166 0
-111 3 -131 24 -176 27 -58 84 -117 139 -146 59 -29 160 -34 228 -11 55 18 57
18 79 1 31 -25 72 -23 98 5 21 22 22 32 22 225 0 177 -2 208 -20 255 -43 113
-138 185 -257 192 -38 3 -83 0 -102 -6z m166 -168 c56 -40 66 -71 61 -190 l-3
-101 -37 -37 c-33 -32 -44 -37 -95 -40 -72 -5 -113 17 -144 78 -29 58 -25 203
7 246 57 77 141 95 211 44z"/>
<path d="M5015 3621 c-83 -21 -158 -83 -197 -166 l-28 -60 0 -211 c0 -207 0
-211 23 -232 41 -39 97 -25 116 29 6 19 11 107 11 213 0 163 2 184 20 214 30
49 75 72 141 72 66 0 99 26 99 77 0 62 -80 89 -185 64z"/>
<path d="M5478 3615 c-64 -21 -149 -100 -179 -167 -21 -46 -24 -68 -24 -173 0
-107 3 -125 25 -170 29 -58 93 -125 146 -150 56 -26 144 -31 219 -10 59 16 66
16 87 1 32 -23 65 -20 94 9 l26 26 -4 212 c-4 233 -8 250 -69 327 -73 90 -209
131 -321 95z m182 -165 c45 -32 60 -75 60 -175 0 -92 -10 -123 -54 -164 -39
-37 -128 -41 -175 -9 -54 37 -71 79 -71 178 0 107 26 157 100 192 29 14 107 2
140 -22z"/>
<path d="M6193 3620 c-49 -11 -118 -56 -157 -101 -53 -62 -70 -125 -70 -249 1
-133 22 -188 101 -260 83 -76 188 -99 299 -65 27 8 50 15 52 15 10 0 -2 -59
-19 -89 -29 -52 -65 -74 -123 -78 -63 -5 -101 16 -143 79 -22 33 -36 44 -60
46 -95 9 -109 -91 -25 -180 l26 -28 195 0 196 0 26 33 c15 18 37 53 50 77 24
44 24 50 24 315 l0 270 -27 51 c-69 130 -208 197 -345 164z m163 -169 c49 -38
63 -76 64 -171 0 -99 -17 -141 -71 -178 -29 -20 -43 -23 -93 -20 -54 4 -62 8
-97 46 l-39 41 0 103 c0 116 14 152 72 189 44 27 123 22 164 -10z"/>
<path d="M6839 3619 c-56 -16 -129 -78 -163 -139 -29 -52 -31 -62 -35 -177 -4
-160 10 -206 89 -285 70 -70 137 -94 236 -85 82 8 122 26 178 79 52 51 61 93
26 128 -31 31 -74 26 -121 -17 -35 -32 -49 -37 -97 -40 -45 -3 -64 0 -90 16
-29 19 -72 74 -72 94 0 4 80 7 179 7 167 0 180 1 206 21 26 21 27 24 23 113
-4 129 -46 204 -145 262 -48 29 -154 40 -214 23z m148 -159 c35 -21 68 -74 59
-96 -4 -11 -31 -14 -126 -14 -134 0 -144 5 -115 60 20 40 70 70 115 70 19 0
49 -9 67 -20z"/>
<path d="M9919 3623 c-44 -7 -131 -65 -166 -111 -45 -59 -63 -128 -63 -238 0
-126 24 -191 95 -261 82 -80 182 -102 307 -67 54 16 60 16 76 0 25 -22 64 -20
93 3 24 19 24 20 24 233 0 203 -1 215 -24 266 -32 71 -115 147 -183 167 -49
14 -101 17 -159 8z m162 -179 c49 -46 59 -75 59 -166 0 -62 -5 -92 -19 -118
-54 -104 -200 -108 -261 -8 -16 27 -20 51 -20 126 0 108 12 139 68 177 52 37
128 32 173 -11z"/>
<path d="M10665 3621 c-52 -13 -125 -62 -161 -109 -55 -73 -64 -119 -64 -339
0 -193 0 -194 25 -218 13 -14 36 -25 50 -25 14 0 37 11 50 25 25 24 25 26 25
216 0 155 3 197 16 225 25 53 66 76 145 83 73 7 94 19 104 62 5 19 0 34 -20
57 -25 29 -32 32 -83 31 -32 -1 -71 -4 -87 -8z"/>
<path d="M11189 3614 c-60 -18 -142 -92 -177 -158 -26 -50 -27 -56 -30 -263
l-4 -212 26 -26 c32 -32 70 -32 101 0 25 24 25 26 25 216 0 175 2 194 21 228
31 55 63 73 142 81 56 5 73 10 88 29 26 32 24 67 -6 96 -20 21 -33 25 -82 24
-32 0 -79 -7 -104 -15z"/>
<path d="M11693 3621 c-50 -13 -119 -58 -151 -98 -63 -80 -67 -96 -67 -243 0
-131 1 -137 30 -189 62 -112 165 -169 290 -159 75 7 133 35 190 95 65 67 78
116 73 271 -3 106 -7 134 -25 167 -27 51 -86 107 -141 135 -47 24 -145 35
-199 21z m168 -177 c44 -41 59 -83 59 -166 -1 -139 -54 -202 -164 -195 -54 3
-62 7 -97 45 l-39 41 0 103 c0 116 14 152 72 189 49 30 128 22 169 -17z"/>
<path d="M791 3275 c-15 -87 -28 -200 -36 -317 l-7 -98 64 0 c34 0 93 -3 129
-6 l67 -7 71 -86 c38 -47 94 -110 124 -139 l53 -53 50 63 c27 35 80 96 118
136 l70 73 320 -2 321 -2 7 134 c3 74 5 136 3 138 -4 4 -99 22 -404 76 l-194
35 -71 -57 c-39 -32 -105 -90 -147 -130 l-76 -73 -55 78 c-31 42 -83 120 -115
172 l-59 95 -69 11 c-39 6 -89 14 -111 18 l-42 6 -11 -65z"/>
<path d="M8383 3140 c-28 -12 -63 -67 -63 -100 0 -14 9 -40 20 -58 52 -86 184
-56 196 44 11 86 -71 147 -153 114z"/>
<path d="M1552 2731 c-51 -6 -54 -8 -123 -91 -39 -47 -92 -114 -117 -149 l-46
-64 -147 151 -147 152 -58 0 c-33 0 -83 -3 -113 -7 l-53 -6 6 -106 c8 -118 35
-340 45 -357 6 -10 86 -2 203 20 34 6 41 3 110 -57 40 -35 107 -89 148 -120
l74 -56 46 82 c91 162 137 225 167 231 25 5 150 25 443 71 52 9 109 18 127 21
l32 5 -5 132 c-3 73 -7 137 -9 144 -3 8 -74 11 -267 10 -145 0 -287 -3 -316
-6z"/>
<path d="M4418 2370 c-26 -27 -30 -36 -25 -68 8 -46 32 -66 105 -87 31 -9 65
-24 75 -32 23 -22 22 -58 -4 -84 -18 -18 -30 -20 -70 -17 -32 3 -58 13 -73 27
-19 18 -25 19 -34 8 -9 -11 -8 -17 6 -29 32 -29 61 -38 116 -38 77 0 111 29
111 95 0 59 -30 88 -107 104 -28 7 -60 19 -70 28 -23 21 -23 55 0 76 24 22 91
22 121 1 17 -13 25 -14 34 -4 9 9 6 16 -12 31 -17 14 -39 19 -83 19 -53 0 -63
-3 -90 -30z"/>
<path d="M4940 2225 c0 -147 2 -175 15 -175 11 0 15 19 17 88 l3 87 90 0 90 0
3 -87 c3 -80 5 -88 22 -88 19 0 20 8 20 175 0 168 -1 175 -20 175 -18 0 -20
-7 -20 -70 l0 -70 -95 0 -95 0 0 70 c0 56 -3 70 -15 70 -13 0 -15 -26 -15
-175z"/>
<path d="M5582 2380 c-19 -11 -42 -39 -52 -63 -40 -86 -14 -206 52 -247 48
-30 146 -24 184 10 37 35 54 80 54 145 0 65 -17 110 -54 145 -38 34 -136 40
-184 10z m160 -39 c32 -29 33 -31 33 -116 0 -85 -1 -87 -33 -116 -46 -41 -111
-41 -152 -1 -52 53 -52 181 0 234 41 40 107 40 152 -1z"/>
<path d="M6140 2225 c0 -146 2 -175 15 -175 11 0 15 16 17 68 l3 67 73 5 c65
4 77 8 98 33 26 31 33 92 13 129 -16 30 -71 48 -149 48 l-70 0 0 -175z m176
120 c19 -26 18 -85 -3 -107 -12 -14 -31 -18 -80 -18 l-63 0 0 68 c0 38 3 72 8
76 4 4 33 6 66 4 42 -3 62 -10 72 -23z"/>
<path d="M7062 2384 c-25 -17 -31 -80 -9 -114 11 -18 8 -23 -20 -45 -17 -14
-34 -38 -38 -55 -8 -38 18 -94 51 -109 32 -14 106 -14 139 1 19 9 28 9 37 0
17 -17 58 -15 58 2 0 8 -10 16 -22 18 -17 2 -22 9 -20 23 15 97 14 115 -2 115
-11 0 -16 -9 -16 -32 0 -62 -14 -64 -59 -6 -39 48 -41 54 -25 63 63 36 83 96
44 135 -24 24 -86 27 -118 4z m97 -32 c15 -28 2 -61 -30 -77 -26 -14 -29 -13
-43 7 -19 27 -21 59 -4 76 19 19 66 15 77 -6z m-24 -193 c53 -68 51 -79 -18
-79 -44 0 -87 35 -87 72 0 28 26 68 44 68 7 0 35 -27 61 -61z"/>
<path d="M7926 2379 c-21 -16 -26 -29 -26 -64 0 -36 5 -48 29 -68 16 -13 47
-28 67 -32 69 -12 94 -31 94 -70 0 -41 -29 -65 -78 -65 -36 0 -88 23 -94 42
-5 15 -28 1 -28 -18 0 -27 61 -54 123 -54 51 0 62 4 88 29 22 22 29 39 29 67
0 52 -30 80 -112 105 -86 25 -109 58 -68 99 25 25 86 27 119 4 17 -13 25 -14
34 -4 9 9 6 16 -12 31 -34 27 -129 27 -165 -2z"/>
<path d="M8440 2225 l0 -175 105 0 c85 0 105 3 105 15 0 11 -19 15 -87 17
l-88 3 0 65 0 65 78 3 c59 2 77 6 77 17 0 12 -17 15 -80 15 l-81 0 3 58 3 57
88 3 c68 2 87 6 87 17 0 12 -20 15 -105 15 l-105 0 0 -175z"/>
<path d="M8960 2226 c0 -150 2 -176 15 -176 12 0 15 16 15 80 l0 80 49 0 c61
0 73 -11 101 -95 17 -51 26 -65 41 -65 23 0 22 3 -13 98 -11 29 -26 56 -34 59
-20 7 -17 20 5 26 31 8 54 52 47 91 -11 57 -36 71 -137 74 l-89 4 0 -176z
m176 119 c18 -24 18 -56 0 -80 -11 -16 -27 -20 -78 -20 l-63 0 -3 49 c-5 75
-1 79 69 74 45 -3 65 -10 75 -23z"/>
<path d="M9470 2393 c0 -5 26 -82 58 -173 54 -155 59 -165 85 -168 15 -2 27
-2 27 0 0 3 27 80 60 174 33 93 60 170 60 172 0 1 -8 2 -19 2 -15 0 -28 -29
-71 -151 -29 -83 -56 -147 -60 -142 -4 4 -29 72 -55 151 -39 112 -53 142 -67
142 -10 0 -18 -3 -18 -7z"/>
<path d="M10050 2225 c0 -168 1 -175 20 -175 19 0 20 7 20 175 0 168 -1 175
-20 175 -19 0 -20 -7 -20 -175z"/>
<path d="M10482 2381 c-51 -33 -72 -76 -72 -151 0 -117 55 -180 157 -180 47 0
58 4 90 33 25 23 34 39 30 50 -9 24 -22 21 -35 -8 -24 -53 -114 -61 -164 -16
-32 29 -33 31 -33 116 0 85 1 87 33 116 44 39 107 41 152 3 41 -35 62 -19 27
22 -21 24 -33 28 -88 31 -51 3 -70 0 -97 -16z"/>
<path d="M10990 2225 l0 -175 110 0 c90 0 110 3 110 15 0 11 -19 15 -87 17
l-88 3 0 65 0 65 73 3 c55 2 72 6 72 17 0 12 -16 15 -75 15 l-76 0 3 58 3 57
83 3 c64 2 82 6 82 17 0 12 -20 15 -105 15 l-105 0 0 -175z"/>
<path d="M1875 2304 c-347 -60 -312 -48 -361 -129 -23 -38 -64 -113 -90 -167
-27 -54 -52 -98 -55 -98 -10 0 -188 127 -262 187 l-67 55 -80 -16 c-44 -9 -89
-16 -101 -16 -11 0 -22 -6 -25 -14 -11 -29 121 -425 147 -442 5 -3 52 9 104
26 l94 31 43 -29 c74 -51 279 -155 287 -146 4 5 20 47 36 94 15 47 42 119 60
160 l32 74 284 94 c156 52 286 95 288 97 2 2 -6 55 -18 117 -12 62 -21 125
-21 141 0 34 14 35 -295 -19z"/>
<path d="M2035 1899 c-110 -38 -232 -80 -271 -94 l-72 -26 -30 -82 c-35 -93
-53 -147 -76 -229 l-16 -57 -43 18 c-78 34 -191 90 -260 127 l-69 37 -51 -18
c-29 -10 -64 -24 -79 -32 l-27 -13 36 -63 c53 -90 134 -204 191 -267 l49 -55
49 23 49 23 85 -32 c90 -33 222 -75 254 -81 17 -3 21 11 41 132 38 230 19 202
212 310 93 52 201 112 241 134 39 21 72 42 72 46 0 3 -19 65 -42 137 l-43 130
-200 -68z"/>
<path d="M2140 1475 c-118 -69 -218 -125 -221 -125 -9 0 -38 -168 -49 -284 -5
-54 -11 -100 -13 -103 -7 -6 -231 52 -314 82 -81 29 -96 30 -112 11 -26 -31
215 -179 374 -230 81 -25 204 -46 276 -46 l39 0 0 118 0 117 190 155 c105 85
189 157 188 160 -2 3 -32 64 -68 137 -36 73 -67 132 -70 133 -3 0 -102 -56
-220 -125z"/>
<path d="M2385 1095 c-93 -79 -171 -149 -173 -155 -2 -6 -1 -45 3 -86 l7 -74
186 0 187 0 83 105 84 105 -51 55 c-27 31 -73 87 -102 125 -28 39 -52 70 -53
70 0 -1 -77 -66 -171 -145z"/>
<path d="M2786 851 c-25 -33 -46 -62 -46 -65 0 -3 64 -6 143 -5 114 0 138 3
123 12 -10 7 -51 36 -90 65 -39 28 -74 52 -77 52 -3 0 -27 -27 -53 -59z"/>
</g>
</svg>
